<svg width="363" height="378" viewBox="0 0 363 378" fill="none" xmlns="http://www.w3.org/2000/svg">
<path fill-rule="evenodd" clip-rule="evenodd" d="M178.402 2.1811C169.095 3.8681 165.902 6.9021 170.845 9.3601C178.747 13.2911 183.565 16.4341 186.914 19.8461C189.019 21.9911 191.156 23.7451 191.664 23.7451C192.172 23.7451 192.587 24.3091 192.587 24.9981C192.587 25.6881 193.911 27.5011 195.529 29.0281C197.147 30.5561 198.753 32.6921 199.097 33.7751C199.44 34.8591 200.073 35.7451 200.503 35.7451C200.932 35.7451 202.076 37.6571 203.044 39.9951C204.013 42.3331 205.268 45.3701 205.834 46.7451C206.785 49.0591 208.14 54.3191 210.747 65.8271C213.091 76.1711 205.753 111.143 201.373 110.5C199.841 110.275 198.587 110.397 198.587 110.771C198.587 111.405 188.51 110.857 187.735 110.181C187.541 110.012 188.987 105.682 190.949 100.559C200.637 75.2631 198.21 50.2571 184.394 33.0201C182.289 30.3941 180.293 27.4581 179.96 26.4951C179.627 25.5321 178.944 24.7451 178.444 24.7451C177.943 24.7451 175.927 23.2821 173.963 21.4951C162.71 11.2531 145.499 6.32409 129.437 8.74409C124.844 9.43609 120.092 10.1271 118.875 10.2811C117.659 10.4351 115.227 11.2771 113.471 12.1531C111.716 13.0281 109.685 13.7451 108.958 13.7451C108.23 13.7451 106.194 14.6221 104.432 15.6931C102.67 16.7651 100.91 17.4451 100.521 17.2041C100.132 16.9641 99.2584 17.4371 98.5784 18.2561C97.8984 19.0751 96.7054 19.7451 95.9264 19.7451C90.6224 19.7451 54.6834 49.3351 54.6124 53.7611C54.5914 55.0451 56.2294 55.2211 65.3374 54.9111C85.9234 54.2121 106.466 60.7541 119.134 72.0441C127.686 79.6671 135.229 90.0391 136.228 95.5521C136.491 96.9991 137.07 98.6471 137.515 99.2141C137.961 99.7811 139.32 103.503 140.536 107.486C141.753 111.468 143.162 114.982 143.667 115.295C145.948 116.704 144.497 120.338 140.884 122.268C138.847 123.355 135.981 125.248 134.514 126.474C131.576 128.931 131.086 127.968 127.57 112.815C126.877 109.829 124.798 104.879 122.951 101.815C121.104 98.7521 119.591 95.7341 119.59 95.1091C119.583 92.1671 103.385 77.6211 96.0874 74.0031C82.3064 67.1721 55.5564 63.9381 48.5674 68.2581C48.0104 68.6021 46.3244 69.1061 44.8214 69.3771C40.3714 70.1811 26.5874 80.9311 26.5874 83.5981C26.5874 84.1741 26.0114 85.0051 25.3064 85.4451C23.8304 86.3671 15.5874 99.3921 15.5874 100.803C15.5874 101.321 15.0624 101.745 14.4204 101.745C13.7794 101.745 13.5344 102.026 13.8774 102.369C14.2214 102.712 13.6624 104.638 12.6364 106.649C11.6104 108.66 10.0004 112.992 9.05841 116.275C8.11641 119.559 6.99242 122.695 6.56042 123.245C6.12842 123.795 5.53242 125.595 5.23442 127.245C4.16742 133.162 3.49841 136.277 2.87141 138.245C0.107411 146.919 -1.07758 172.948 1.20642 174.843C2.56042 175.968 3.02042 175.871 4.22642 174.207C25.1764 145.319 58.6564 136.946 91.3584 152.417C103.248 158.041 104.695 160.701 101.971 171.925C100.351 178.605 100.351 178.605 95.3744 174.67C71.9464 156.152 41.8544 154.89 19.7524 171.5C17.3684 173.292 15.0454 174.528 14.5904 174.247C13.2314 173.407 2.58741 188.285 2.58741 191.024C2.58741 191.75 2.03641 192.896 1.36241 193.57C-0.378592 195.311 0.0764146 214.537 2.05941 223.022C3.93341 231.037 9.41941 247.78 10.6834 249.337C11.1714 249.938 11.2744 250.725 10.9124 251.087C10.5504 251.449 10.7184 251.745 11.2864 251.745C11.8544 251.745 13.7314 254.783 15.4574 258.495C19.9414 268.143 21.8034 271.356 27.8374 279.854C29.3494 281.985 30.5874 284.182 30.5874 284.736C30.5874 285.291 30.9404 285.745 31.3714 285.745C31.8034 285.745 32.9534 287.095 33.9284 288.745C36.9874 293.924 38.2474 292.587 38.8774 283.495C39.1914 278.957 40.1614 272.77 41.0314 269.745C41.9024 266.72 42.8124 263.432 43.0544 262.438C43.6564 259.968 47.6804 253.491 49.4484 252.147C50.2784 251.515 50.5644 250.517 50.1204 249.798C48.9864 247.963 62.9334 234.691 69.5874 231.273C81.4044 225.204 82.9514 224.581 88.4284 223.684C98.4264 222.046 102.472 222.409 103.06 224.995C104.699 232.212 105.541 236.379 105.563 237.378C105.577 238.064 102.561 238.794 97.9074 239.23C86.6504 240.285 76.1044 245.082 66.7754 253.392C63.5154 256.296 60.5644 258.389 60.2174 258.042C59.8714 257.695 59.5874 258.176 59.5874 259.11C59.5874 260.044 58.8794 261.079 58.0144 261.412C55.9214 262.215 51.2854 272.545 49.1134 281.245C46.2174 292.843 48.6534 307.184 55.1604 316.854C57.0454 319.655 58.5874 322.092 58.5874 322.27C58.5874 323.072 72.8144 336.745 73.6494 336.745C74.1654 336.745 74.5874 337.195 74.5874 337.745C74.5874 338.295 74.9994 338.745 75.5024 338.745C76.0054 338.745 79.9424 341.109 84.2524 343.999C99.9984 354.558 127.587 365.958 127.587 361.905C127.587 361.3 126.437 358.29 125.031 355.217C114.412 332.001 117.686 299.587 132.538 280.898C137.279 274.931 136.88 274.983 147.36 278.972C153.256 281.215 151.029 288.649 142.636 294.745C142.257 295.02 140.145 298.845 137.941 303.245C125.608 327.869 130.664 357.247 149.226 368.815C152.498 370.854 165.587 375.899 165.587 375.121C165.587 374.875 166.375 375.096 167.337 375.611C174.827 379.618 201.21 378.021 215.163 372.716C218.186 371.567 218.215 364.987 215.258 351.245C214.43 347.395 213.487 341.545 213.163 338.245C212.632 332.831 211.221 322.941 210.186 317.369C208.526 308.439 208.353 307.224 207.188 296.245C207.013 294.595 206.259 290.545 205.513 287.245C204.766 283.945 204.001 280.245 204.001 280.245L201.458 272.165L200.573 268.936C200.573 268.936 200.102 261.831 191.451 261.85C183.126 261.869 170.507 259.618 164.587 257.06C155.282 253.038 152.562 251.292 145.82 245.013C141.823 241.291 138.561 237.744 138.57 237.133C138.579 236.521 137.267 234.359 135.654 232.33C127.012 221.455 123.768 198.647 128.623 182.894C147.253 122.441 232.203 125.861 245.946 187.618C249.201 202.243 241 231 239.5 233C237.704 236.789 235.555 243.745 235.555 243.745C235.555 243.745 238.5 246 242.238 248.139C296.823 289.141 362.694 247.069 362.95 171.039C363.022 149.622 361.663 147.727 355.133 160.141C343.05 183.11 309.065 198.409 284.07 192.13C276.399 190.203 276.342 190.14 274.238 181.245C272.116 172.277 272.037 172.617 275.868 174.218C294.914 182.176 323.77 176.401 338.788 161.627C363.893 136.927 361.207 110.212 329.704 71.3071C326.114 66.8731 322.706 63.0601 322.132 62.8341C321.557 62.6081 319.58 60.9211 317.737 59.0841C315.895 57.2481 314.095 55.7451 313.737 55.7441C313.38 55.7441 310.589 53.7831 307.536 51.3861C297.038 43.1451 294.718 43.4401 297.869 52.6171C301.717 63.8241 301.748 72.5731 297.987 85.8111C295.606 94.1921 294.243 97.3801 288.663 107.629C284.828 114.671 256.916 137.745 252.232 137.745C240.638 137.745 239.918 124.524 251.194 118.696C332.348 76.7541 274.839 -15.2979 178.402 2.1811Z" fill="#000325"/>
</svg>
